<svg width="455" height="334" viewBox="0 0 455 334" fill="none" xmlns="http://www.w3.org/2000/svg">
<g filter="url(#filter0_d)">
<path d="M321.955 221.524H13.911C11.2833 221.521 8.76416 220.424 6.90614 218.474C5.04811 216.524 4.00297 213.88 4 211.122V16.8491C4.00214 14.8287 4.76779 12.8916 6.12898 11.4629C7.49017 10.0342 9.33573 9.23048 11.2608 9.22815H324.48C326.438 9.23049 328.316 10.048 329.7 11.5015C331.085 12.9549 331.864 14.9255 331.866 16.9809V211.122C331.863 213.88 330.818 216.524 328.96 218.474C327.102 220.424 324.583 221.521 321.955 221.524Z" fill="#F2F2F2"/>
<path d="M23.6637 211.494H312.203C314.749 211.494 317.191 210.433 318.992 208.545C320.792 206.657 321.804 204.096 321.804 201.426V36.8479C321.804 34.1777 320.792 31.6168 318.992 29.7287C317.191 27.8406 314.749 26.7799 312.203 26.7799H23.6637C21.1173 26.7799 18.6752 27.8406 16.8746 29.7287C15.074 31.6168 14.0625 34.1777 14.0625 36.8479V201.426C14.0625 204.096 15.074 206.657 16.8746 208.545C18.6752 210.433 21.1173 211.494 23.6637 211.494Z" fill="white"/>
<path d="M331.866 16.7503H4V11.4036C4.00381 8.60996 5.05323 5.93204 6.918 3.95727C8.78278 1.98251 11.3106 0.872179 13.947 0.869873H321.919C324.555 0.872166 327.083 1.98249 328.948 3.95725C330.813 5.93202 331.862 8.60995 331.866 11.4036V16.7503Z" fill="#00BFA6"/>
<path d="M22.0284 11.7354C23.6493 11.7354 24.9633 10.4257 24.9633 8.8101C24.9633 7.19448 23.6493 5.88477 22.0284 5.88477C20.4075 5.88477 19.0935 7.19448 19.0935 8.8101C19.0935 10.4257 20.4075 11.7354 22.0284 11.7354Z" fill="white"/>
<path d="M31.6716 11.7354C33.0609 11.7354 34.1872 10.4257 34.1872 8.8101C34.1872 7.19448 33.0609 5.88477 31.6716 5.88477C30.2823 5.88477 29.156 7.19448 29.156 8.8101C29.156 10.4257 30.2823 11.7354 31.6716 11.7354Z" fill="white"/>
<path d="M41.7339 11.7354C43.1232 11.7354 44.2495 10.4257 44.2495 8.8101C44.2495 7.19448 43.1232 5.88477 41.7339 5.88477C40.3445 5.88477 39.2183 7.19448 39.2183 8.8101C39.2183 10.4257 40.3445 11.7354 41.7339 11.7354Z" fill="white"/>
<path d="M176.954 175.554H151.365C149.866 175.552 148.429 174.918 147.37 173.789C146.31 172.661 145.714 171.131 145.712 169.535V142.29C145.714 140.694 146.31 139.165 147.37 138.036C148.429 136.908 149.866 136.273 151.365 136.271H176.954C178.453 136.273 179.89 136.908 180.95 138.036C182.009 139.165 182.606 140.694 182.607 142.29V169.535C182.606 171.131 182.009 172.661 180.95 173.789C179.89 174.918 178.453 175.552 176.954 175.554ZM151.365 137.538C150.182 137.54 149.047 138.041 148.211 138.932C147.374 139.823 146.903 141.03 146.902 142.29V169.535C146.903 170.795 147.374 172.003 148.211 172.894C149.047 173.784 150.182 174.286 151.365 174.287H176.954C178.137 174.286 179.272 173.784 180.108 172.894C180.945 172.003 181.416 170.795 181.417 169.535V142.29C181.416 141.03 180.945 139.823 180.108 138.932C179.272 138.041 178.137 137.54 176.954 137.538H151.365Z" fill="#CCCCCC"/>
<path d="M171.575 168.032H155.905C155.426 168.031 154.966 167.836 154.627 167.49C154.288 167.144 154.098 166.674 154.097 166.184V146.477C154.098 145.987 154.288 145.517 154.627 145.171C154.966 144.825 155.426 144.63 155.905 144.629H167.26C167.671 144.63 168.071 144.773 168.392 145.037L172.708 148.58C172.919 148.753 173.09 148.972 173.207 149.221C173.324 149.471 173.384 149.744 173.383 150.02V166.184C173.383 166.674 173.192 167.144 172.853 167.49C172.514 167.836 172.055 168.031 171.575 168.032ZM155.905 145.861C155.745 145.861 155.592 145.926 155.479 146.041C155.366 146.157 155.303 146.313 155.303 146.477V166.184C155.303 166.348 155.366 166.504 155.479 166.62C155.592 166.735 155.745 166.8 155.905 166.8H171.575C171.735 166.8 171.888 166.735 172.001 166.62C172.114 166.504 172.178 166.348 172.178 166.184V150.02C172.178 149.928 172.158 149.837 172.119 149.754C172.08 149.671 172.023 149.598 171.953 149.54L167.637 145.996C167.53 145.909 167.397 145.861 167.26 145.861H155.905Z" fill="#CCCCCC"/>
<path d="M168.585 152.987H158.896C158.735 152.987 158.581 152.943 158.467 152.865C158.354 152.786 158.29 152.68 158.29 152.569C158.29 152.459 158.354 152.352 158.467 152.274C158.581 152.196 158.735 152.151 158.896 152.151H168.585C168.746 152.151 168.9 152.196 169.014 152.274C169.127 152.352 169.191 152.459 169.191 152.569C169.191 152.68 169.127 152.786 169.014 152.865C168.9 152.943 168.746 152.987 168.585 152.987Z" fill="#CCCCCC"/>
<path d="M168.585 157.166H158.896C158.735 157.166 158.581 157.078 158.467 156.922C158.354 156.765 158.29 156.552 158.29 156.331C158.29 156.109 158.354 155.896 158.467 155.74C158.581 155.583 158.735 155.495 158.896 155.495H168.585C168.746 155.495 168.9 155.583 169.014 155.74C169.127 155.896 169.191 156.109 169.191 156.331C169.191 156.552 169.127 156.765 169.014 156.922C168.9 157.078 168.746 157.166 168.585 157.166Z" fill="#CCCCCC"/>
<path d="M168.585 160.51H158.896C158.735 160.51 158.581 160.466 158.467 160.387C158.354 160.309 158.29 160.203 158.29 160.092C158.29 159.981 158.354 159.875 158.467 159.796C158.581 159.718 158.735 159.674 158.896 159.674H168.585C168.746 159.674 168.9 159.718 169.014 159.796C169.127 159.875 169.191 159.981 169.191 160.092C169.191 160.203 169.127 160.309 169.014 160.387C168.9 160.466 168.746 160.51 168.585 160.51Z" fill="#CCCCCC"/>
<path d="M238.167 175.554H212.578C211.079 175.552 209.642 174.918 208.583 173.789C207.523 172.661 206.927 171.131 206.925 169.535V142.29C206.927 140.694 207.523 139.165 208.583 138.036C209.642 136.908 211.079 136.273 212.578 136.271H238.167C239.666 136.273 241.103 136.908 242.162 138.036C243.222 139.165 243.818 140.694 243.82 142.29V169.535C243.818 171.131 243.222 172.661 242.162 173.789C241.103 174.918 239.666 175.552 238.167 175.554ZM212.578 137.538C211.395 137.54 210.26 138.041 209.424 138.932C208.587 139.823 208.116 141.03 208.115 142.29V169.535C208.116 170.795 208.587 172.003 209.424 172.894C210.26 173.784 211.395 174.286 212.578 174.287H238.167C239.35 174.286 240.485 173.784 241.321 172.894C242.158 172.003 242.629 170.795 242.63 169.535V142.29C242.629 141.03 242.158 139.823 241.321 138.932C240.485 138.041 239.35 137.54 238.167 137.538H212.578Z" fill="#CCCCCC"/>
<path d="M233.659 163.017H217.086C216.615 163.016 216.164 162.824 215.831 162.482C215.498 162.14 215.311 161.677 215.31 161.193V151.468C215.311 150.984 215.498 150.521 215.831 150.179C216.164 149.837 216.615 149.645 217.086 149.644H233.659C234.13 149.645 234.581 149.837 234.914 150.179C235.247 150.521 235.434 150.984 235.435 151.468V161.193C235.434 161.677 235.247 162.14 234.914 162.482C234.581 162.824 234.13 163.016 233.659 163.017ZM217.086 150.86C216.929 150.86 216.778 150.924 216.667 151.038C216.556 151.152 216.494 151.306 216.494 151.468V161.193C216.494 161.355 216.556 161.509 216.667 161.623C216.778 161.737 216.929 161.801 217.086 161.801H233.659C233.816 161.801 233.966 161.737 234.077 161.623C234.188 161.509 234.251 161.355 234.251 161.193V151.468C234.251 151.306 234.188 151.152 234.077 151.038C233.966 150.924 233.816 150.86 233.659 150.86H217.086Z" fill="#CCCCCC"/>
<path d="M225.372 158.002C225.04 158.003 224.714 157.901 224.431 157.71L215.587 151.674C215.454 151.583 215.36 151.438 215.325 151.271C215.29 151.104 215.317 150.929 215.4 150.784C215.483 150.638 215.616 150.535 215.769 150.497C215.921 150.458 216.082 150.487 216.215 150.578L225.059 156.613C225.153 156.677 225.262 156.711 225.373 156.711C225.484 156.711 225.592 156.677 225.686 156.613L234.53 150.578C234.663 150.487 234.824 150.458 234.976 150.497C235.129 150.535 235.262 150.638 235.345 150.784C235.428 150.929 235.455 151.104 235.42 151.271C235.385 151.438 235.29 151.583 235.158 151.674L226.314 157.71C226.032 157.901 225.705 158.003 225.372 158.002Z" fill="#CCCCCC"/>
<path d="M115.741 175.554H90.1523C88.6535 175.552 87.2166 174.918 86.1567 173.789C85.0969 172.661 84.5007 171.131 84.499 169.535V142.29C84.5007 140.694 85.0969 139.165 86.1567 138.036C87.2166 136.908 88.6535 136.273 90.1523 136.271H115.741C117.24 136.273 118.677 136.908 119.737 138.036C120.797 139.165 121.393 140.694 121.394 142.29V169.535C121.393 171.131 120.797 172.661 119.737 173.789C118.677 174.918 117.24 175.552 115.741 175.554ZM90.1523 137.538C88.9691 137.54 87.8346 138.041 86.9979 138.932C86.1612 139.823 85.6905 141.03 85.6892 142.29V169.535C85.6905 170.795 86.1612 172.003 86.9979 172.894C87.8346 173.784 88.9691 174.286 90.1523 174.287H115.741C116.924 174.286 118.059 173.784 118.896 172.894C119.732 172.003 120.203 170.795 120.204 169.535V142.29C120.203 141.03 119.732 139.823 118.896 138.932C118.059 138.041 116.924 137.54 115.741 137.538H90.1523Z" fill="#CCCCCC"/>
<path d="M111.233 163.017H94.66C94.1892 163.016 93.7378 162.824 93.4049 162.482C93.072 162.14 92.8848 161.677 92.8843 161.193V151.468C92.8848 150.984 93.072 150.521 93.4049 150.179C93.7378 149.837 94.1892 149.645 94.66 149.644H111.233C111.704 149.645 112.155 149.837 112.488 150.179C112.821 150.521 113.009 150.984 113.009 151.468V161.193C113.009 161.677 112.821 162.14 112.488 162.482C112.155 162.824 111.704 163.016 111.233 163.017ZM94.66 150.86C94.5031 150.86 94.3526 150.924 94.2416 151.038C94.1307 151.152 94.0682 151.306 94.0681 151.468V161.193C94.0682 161.355 94.1307 161.509 94.2416 161.623C94.3526 161.737 94.5031 161.801 94.66 161.801H111.233C111.39 161.801 111.541 161.737 111.652 161.623C111.763 161.509 111.825 161.355 111.825 161.193V151.468C111.825 151.306 111.763 151.152 111.652 151.038C111.541 150.924 111.39 150.86 111.233 150.86H94.66Z" fill="#CCCCCC"/>
<path d="M108.473 163.017H96.5818C96.3743 163.017 96.1705 162.959 95.9908 162.847C95.8111 162.736 95.6619 162.576 95.5582 162.383C95.4544 162.19 95.3999 161.972 95.3999 161.749C95.3999 161.526 95.4546 161.308 95.5584 161.115L99.1401 154.457C99.2439 154.264 99.3931 154.104 99.5727 153.993C99.7524 153.882 99.9562 153.823 100.164 153.823C100.371 153.823 100.575 153.882 100.755 153.993C100.934 154.104 101.083 154.264 101.187 154.457L103.501 158.757L104.841 156.266C104.944 156.073 105.094 155.913 105.273 155.802C105.453 155.69 105.657 155.632 105.864 155.632C106.072 155.632 106.275 155.69 106.455 155.802C106.635 155.913 106.784 156.073 106.888 156.266L109.497 161.115C109.6 161.308 109.655 161.526 109.655 161.749C109.655 161.972 109.6 162.19 109.497 162.383C109.393 162.576 109.244 162.736 109.064 162.847C108.884 162.958 108.68 163.017 108.473 163.017H108.473ZM108.473 161.749L105.864 156.9L104.012 160.342C103.961 160.438 103.886 160.519 103.796 160.574C103.706 160.63 103.604 160.659 103.501 160.659C103.397 160.659 103.295 160.63 103.205 160.574C103.115 160.519 103.041 160.438 102.989 160.342L100.164 155.091L96.5818 161.749H108.473Z" fill="#CCCCCC"/>
<path d="M109.236 154.659C109.931 154.659 110.494 154.098 110.494 153.405C110.494 152.713 109.931 152.151 109.236 152.151C108.541 152.151 107.978 152.713 107.978 153.405C107.978 154.098 108.541 154.659 109.236 154.659Z" fill="#CCCCCC"/>
<path d="M396.432 318.478L389.046 318.477L385.532 288.389L396.433 288.389L396.432 318.478Z" fill="#FFB8B8"/>
<path d="M398.11 326L374.631 325.999V325.683C374.631 324.408 374.868 323.145 375.327 321.966C375.786 320.788 376.459 319.717 377.308 318.815C378.157 317.913 379.164 317.198 380.273 316.71C381.381 316.222 382.57 315.97 383.77 315.97H383.77L398.11 315.971L398.11 326Z" fill="#2F2E41"/>
<path d="M426.619 318.478L419.233 318.477L415.719 288.389L426.62 288.389L426.619 318.478Z" fill="#FFB8B8"/>
<path d="M428.297 326L404.818 325.999V325.683C404.818 324.408 405.055 323.145 405.514 321.966C405.973 320.788 406.646 319.717 407.495 318.815C408.344 317.913 409.351 317.198 410.46 316.71C411.568 316.222 412.757 315.97 413.957 315.97H413.957L428.297 315.971L428.297 326Z" fill="#2F2E41"/>
<path d="M424.175 305.817L417.369 303.643C416.861 303.482 416.411 303.167 416.073 302.738C415.736 302.309 415.526 301.785 415.471 301.231L409.125 238.095C409.121 238.018 409.088 237.947 409.035 237.894C408.982 237.842 408.912 237.813 408.839 237.813C408.766 237.806 408.693 237.829 408.636 237.877C408.579 237.925 408.542 237.994 408.533 238.071L397.904 299.239C397.84 299.61 397.705 299.964 397.508 300.28C397.312 300.596 397.057 300.867 396.759 301.078C396.461 301.289 396.126 301.436 395.774 301.509C395.421 301.582 395.058 301.581 394.706 301.505L386.008 299.623C385.37 299.483 384.801 299.106 384.407 298.561C384.013 298.017 383.819 297.341 383.861 296.658L390.326 196.401L434.167 191.434L427.652 303.28C427.61 303.999 427.309 304.674 426.81 305.168C426.31 305.663 425.651 305.939 424.964 305.94C424.697 305.94 424.431 305.899 424.175 305.817Z" fill="#2F2E41"/>
<path d="M424.524 108.689C432.628 108.689 439.198 101.767 439.198 93.2269C439.198 84.6872 432.628 77.7644 424.524 77.7644C416.419 77.7644 409.85 84.6872 409.85 93.2269C409.85 101.767 416.419 108.689 424.524 108.689Z" fill="#FFB8B8"/>
<path d="M390.563 196.745L400.049 133.819C400.553 130.474 401.728 127.279 403.496 124.449C405.263 121.619 407.582 119.218 410.298 117.406C413.015 115.593 416.067 114.411 419.251 113.938C422.434 113.465 425.677 113.712 428.764 114.662C434.16 116.306 438.781 120.011 441.723 125.052C444.665 130.094 445.718 136.11 444.676 141.925L434.751 198.121L390.563 196.745Z" fill="#00BFA6"/>
<path d="M428.421 207.903C429.149 207.389 429.764 206.712 430.22 205.917C430.677 205.123 430.965 204.231 431.064 203.305C431.163 202.379 431.07 201.441 430.793 200.558C430.516 199.674 430.06 198.866 429.458 198.191L439.198 178.062L428.229 179.311L420.662 198.234C419.666 199.388 419.101 200.892 419.074 202.461C419.048 204.03 419.561 205.554 420.517 206.746C421.474 207.938 422.806 208.714 424.263 208.927C425.72 209.14 427.199 208.776 428.421 207.903V207.903Z" fill="#FFB8B8"/>
<path d="M430.231 194.75C429.683 194.669 429.172 194.417 428.765 194.027L424.976 190.383C424.567 189.988 424.284 189.471 424.166 188.903C424.048 188.335 424.101 187.743 424.317 187.207L431.89 168.528L430.815 131.622C430.97 130.436 431.347 129.293 431.927 128.258C432.506 127.224 433.275 126.318 434.191 125.593C435.107 124.869 436.151 124.339 437.264 124.034C438.376 123.729 439.536 123.656 440.676 123.817C441.816 123.979 442.914 124.373 443.908 124.977C444.901 125.581 445.771 126.382 446.466 127.336C447.162 128.289 447.67 129.376 447.962 130.534C448.254 131.692 448.324 132.899 448.167 134.085L450.004 157.285C450.563 164.326 448.644 171.339 444.605 177.018L432.795 193.631C432.568 193.951 432.279 194.217 431.946 194.412C431.614 194.607 431.246 194.728 430.865 194.765C430.654 194.786 430.441 194.781 430.231 194.75Z" fill="#00BFA6"/>
<path d="M339.522 84.6085C339.683 85.5324 340.032 86.4076 340.546 87.1724C341.059 87.9372 341.724 88.573 342.494 89.035C343.264 89.4971 344.119 89.7741 345.001 89.8466C345.882 89.9191 346.767 89.7853 347.595 89.4546L361.331 107.018L364.569 95.6586L351.028 80.7217C350.413 79.281 349.323 78.13 347.963 77.4868C346.604 76.8437 345.069 76.7531 343.651 77.2322C342.233 77.7112 341.029 78.7268 340.268 80.0863C339.507 81.4458 339.241 83.0548 339.522 84.6085Z" fill="#FFB8B8"/>
<path d="M349.863 92.1668C350.148 91.6794 350.571 91.2927 351.075 91.0584L355.781 88.8757C356.291 88.6406 356.859 88.572 357.409 88.6791C357.958 88.7863 358.462 89.064 358.853 89.4748L372.442 103.832L405.553 117.025C406.544 117.628 407.409 118.426 408.1 119.372C408.79 120.318 409.292 121.395 409.577 122.541C409.862 123.687 409.924 124.879 409.76 126.049C409.596 127.22 409.208 128.345 408.62 129.362C408.032 130.378 407.254 131.266 406.331 131.974C405.408 132.681 404.359 133.196 403.243 133.487C402.126 133.778 400.965 133.84 399.825 133.67C398.685 133.5 397.589 133.101 396.6 132.496L375.333 125.302C368.878 123.119 363.415 118.604 359.96 112.595L349.853 95.024C349.659 94.686 349.536 94.3099 349.493 93.9201C349.449 93.5302 349.486 93.1354 349.602 92.7613C349.665 92.5532 349.753 92.3537 349.863 92.1668Z" fill="#00BFA6"/>
<path opacity="0.1" d="M435.844 147.137L435.283 167.193L424.943 187.256L433.576 164.898L435.844 147.137Z" fill="black"/>
<path d="M422.312 95.9278C421.382 96.0556 420.44 95.8222 419.66 95.2709C418.881 94.7195 418.317 93.8878 418.073 92.9301C417.839 91.8279 417.325 90.8139 416.586 89.9971C415.848 89.1802 414.914 88.5912 413.883 88.2932C411.166 87.6369 407.846 88.9889 405.856 86.8128C405.43 86.316 405.122 85.7192 404.956 85.0716C404.791 84.4241 404.774 83.7443 404.906 83.0883C405.273 80.9736 406.703 79.376 408.26 78.0983C411.537 75.4219 415.501 73.8552 419.635 73.6035C421.774 73.538 423.915 73.6506 426.038 73.9403C428.261 74.0887 430.459 74.5135 432.588 75.206C435.013 76.1737 437.168 77.7721 438.854 79.8535C440.541 81.9349 441.704 84.4323 442.236 87.1146C442.722 89.8052 442.647 92.5757 442.017 95.2326C441.386 97.8896 440.214 100.369 438.584 102.498C436.632 105.068 434.115 107.094 431.252 108.4C430.57 108.74 429.789 108.782 429.078 108.517C427.295 107.767 427.586 105.432 428.399 103.874C429.269 102.207 430.608 100.593 429.908 98.5646C429.557 97.6239 428.884 96.8576 428.023 96.4187C426.25 95.4629 424.268 95.689 422.362 95.9217L422.312 95.9278Z" fill="#2F2E41"/>
<path d="M334.55 104.51H152.252C149.629 104.507 147.114 103.409 145.259 101.457C143.404 99.5048 142.361 96.8579 142.358 94.097V53.074C142.361 50.3132 143.404 47.6663 145.259 45.714C147.114 43.7618 149.629 42.6636 152.252 42.6605H334.55C337.173 42.6637 339.688 43.7618 341.543 45.7141C343.398 47.6663 344.441 50.3132 344.444 53.074V94.097C344.441 96.8578 343.398 99.5047 341.543 101.457C339.688 103.409 337.173 104.507 334.55 104.51Z" fill="white"/>
<path d="M334.238 105.346H151.726C149.02 105.343 146.425 104.208 144.512 102.19C142.599 100.172 141.522 97.4359 141.519 94.5821V53.4247C141.522 50.5709 142.599 47.8348 144.512 45.8168C146.425 43.7989 149.02 42.6637 151.726 42.6605H334.238C336.944 42.6637 339.538 43.7989 341.451 45.8168C343.365 47.8348 344.441 50.5709 344.444 53.4247V94.5821C344.441 97.4359 343.365 100.172 341.451 102.19C339.538 104.208 336.944 105.343 334.238 105.346ZM151.726 43.9269C149.338 43.9298 147.049 44.9313 145.361 46.7119C143.672 48.4925 142.723 50.9066 142.72 53.4247V94.5821C142.723 97.1002 143.672 99.5144 145.361 101.295C147.049 103.075 149.338 104.077 151.726 104.08H334.238C336.625 104.077 338.914 103.075 340.603 101.295C342.291 99.5144 343.241 97.1002 343.243 94.5821V53.4247C343.241 50.9066 342.291 48.4925 340.603 46.7119C338.914 44.9313 336.625 43.9298 334.238 43.9269H151.726Z" fill="#3F3D56"/>
<path d="M311.913 94.4807H174.05C171.428 94.4776 168.914 93.3923 167.06 91.4629C165.206 89.5335 164.163 86.9176 164.16 84.189V62.9819C164.163 60.2533 165.206 57.6374 167.06 55.708C168.914 53.7786 171.428 52.6933 174.05 52.6902H311.913C314.536 52.6933 317.05 53.7786 318.904 55.708C320.758 57.6374 321.801 60.2533 321.804 62.9819V84.189C321.801 86.9176 320.758 89.5335 318.904 91.4629C317.05 93.3923 314.536 94.4776 311.913 94.4807Z" fill="#F2F2F2"/>
<path d="M203.57 82.7791C210.054 82.7791 215.31 77.3531 215.31 70.6599C215.31 63.9666 210.054 58.5406 203.57 58.5406C197.087 58.5406 191.831 63.9666 191.831 70.6599C191.831 77.3531 197.087 82.7791 203.57 82.7791Z" fill="#FF6584"/>
<path d="M303.979 93.2301L287.225 78.5626L270.76 64.1483C270.326 63.7679 269.777 63.5599 269.21 63.5611C268.642 63.5622 268.094 63.7724 267.661 64.1545L251.249 78.635L247.24 82.1721L241.196 76.8806L222.827 60.7995C222.393 60.4191 221.843 60.2111 221.276 60.2123C220.709 60.2134 220.161 60.4236 219.728 60.8057L201.418 76.9605L182.821 93.3698C182.726 93.4529 182.659 93.5642 182.627 93.6887C182.596 93.8132 182.602 93.9448 182.644 94.0657C182.687 94.1866 182.764 94.2909 182.865 94.3645C182.966 94.4382 183.087 94.4775 183.21 94.4772L221.339 94.4005L233.408 94.3763L233.29 94.4805L269.267 94.4081L303.594 94.3391C303.718 94.3389 303.838 94.2991 303.939 94.2251C304.04 94.1511 304.116 94.0464 304.159 93.9254C304.201 93.8043 304.206 93.6726 304.174 93.5483C304.142 93.4239 304.074 93.3128 303.979 93.2301Z" fill="#3F3D56"/>
<path d="M52.8512 119.555H27.2625C25.7636 119.553 24.3267 118.918 23.2668 117.79C22.207 116.662 21.6108 115.132 21.6091 113.536V86.291C21.6108 84.6952 22.207 83.1653 23.2668 82.0368C24.3267 80.9084 25.7636 80.2737 27.2625 80.2719H52.8512C54.35 80.2737 55.787 80.9084 56.8468 82.0368C57.9067 83.1653 58.5028 84.6952 58.5045 86.291V113.536C58.5028 115.132 57.9067 116.662 56.8468 117.79C55.787 118.918 54.35 119.553 52.8512 119.555Z" fill="white"/>
<path d="M52.8512 119.555H27.2625C25.7636 119.553 24.3267 118.918 23.2668 117.79C22.207 116.662 21.6108 115.132 21.6091 113.536V86.291C21.6108 84.6952 22.207 83.1653 23.2668 82.0368C24.3267 80.9084 25.7636 80.2737 27.2625 80.2719H52.8512C54.35 80.2737 55.787 80.9084 56.8468 82.0368C57.9067 83.1653 58.5028 84.6952 58.5045 86.291V113.536C58.5028 115.132 57.9067 116.662 56.8468 117.79C55.787 118.918 54.35 119.553 52.8512 119.555ZM27.2625 81.539C26.0792 81.5404 24.9447 82.0416 24.108 82.9324C23.2713 83.8233 22.8006 85.0312 22.7993 86.291V113.536C22.8006 114.796 23.2713 116.004 24.108 116.894C24.9447 117.785 26.0792 118.286 27.2625 118.288H52.8512C54.0345 118.286 55.169 117.785 56.0057 116.894C56.8424 116.004 57.313 114.796 57.3143 113.536V86.291C57.313 85.0312 56.8424 83.8233 56.0057 82.9324C55.169 82.0416 54.0345 81.5404 52.8512 81.539H27.2625Z" fill="#3F3D56"/>
<path d="M48.3437 108.689H31.7703C31.2996 108.689 30.8482 108.483 30.5153 108.118C30.1824 107.752 29.9951 107.256 29.9946 106.739V93.0876C29.9951 92.5705 30.1824 92.0748 30.5153 91.7092C30.8482 91.3436 31.2996 91.1379 31.7703 91.1373H36.4359C36.7394 91.1361 37.038 91.2209 37.303 91.3834C37.5679 91.5459 37.7902 91.7807 37.9483 92.0652L39.2495 94.3877H48.3437C48.8145 94.3883 49.2658 94.5939 49.5987 94.9595C49.9316 95.3252 50.1189 95.8209 50.1194 96.3379V106.739C50.1189 107.256 49.9316 107.752 49.5987 108.118C49.2658 108.483 48.8145 108.689 48.3437 108.689Z" fill="#00BFA6"/>
</g>
<defs>
<filter id="filter0_d" x="0" y="0.869873" width="454.099" height="333.13" filterUnits="userSpaceOnUse" color-interpolation-filters="sRGB">
<feFlood flood-opacity="0" result="BackgroundImageFix"/>
<feColorMatrix in="SourceAlpha" type="matrix" values="0 0 0 0 0 0 0 0 0 0 0 0 0 0 0 0 0 0 127 0"/>
<feOffset dy="4"/>
<feGaussianBlur stdDeviation="2"/>
<feColorMatrix type="matrix" values="0 0 0 0 0 0 0 0 0 0 0 0 0 0 0 0 0 0 0.25 0"/>
<feBlend mode="normal" in2="BackgroundImageFix" result="effect1_dropShadow"/>
<feBlend mode="normal" in="SourceGraphic" in2="effect1_dropShadow" result="shape"/>
</filter>
</defs>
</svg>
