<svg width="468" height="284" viewBox="0 0 468 284" fill="none" xmlns="http://www.w3.org/2000/svg">
<g filter="url(#filter0_d)">
<path d="M283.14 153.397H13.4436C10.9398 153.394 8.53946 152.372 6.76906 150.554C4.99867 148.737 4.00282 146.273 4 143.702V9.69421C4.00282 7.12404 4.99867 4.65996 6.76906 2.84256C8.53946 1.02517 10.9398 0.00289336 13.4436 0H283.14C285.644 0.00289336 288.044 1.02517 289.815 2.84256C291.585 4.65996 292.581 7.12404 292.584 9.69421V143.702C292.581 146.273 291.585 148.737 289.815 150.554C288.044 152.372 285.644 153.394 283.14 153.397ZM13.4436 1.1405C11.2344 1.14306 9.11642 2.04507 7.55431 3.64865C5.9922 5.25223 5.11351 7.42642 5.11101 9.69421V143.702C5.11351 145.97 5.9922 148.144 7.55431 149.748C9.11642 151.352 11.2344 152.254 13.4436 152.256H283.14C285.349 152.254 287.467 151.352 289.03 149.748C290.592 148.144 291.47 145.97 291.473 143.702V9.69421C291.47 7.42642 290.592 5.25223 289.03 3.64865C287.467 2.04507 285.349 1.14306 283.14 1.1405H13.4436Z" fill="#3F3D56"/>
<path d="M55.8007 33.3596C58.5618 33.3596 60.8002 31.0618 60.8002 28.2273C60.8002 25.3929 58.5618 23.0951 55.8007 23.0951C53.0395 23.0951 50.8011 25.3929 50.8011 28.2273C50.8011 31.0618 53.0395 33.3596 55.8007 33.3596Z" fill="#CCCCCC"/>
<path d="M55.8007 52.748C58.5618 52.748 60.8002 50.4502 60.8002 47.6158C60.8002 44.7813 58.5618 42.4835 55.8007 42.4835C53.0395 42.4835 50.8011 44.7813 50.8011 47.6158C50.8011 50.4502 53.0395 52.748 55.8007 52.748Z" fill="#CCCCCC"/>
<path d="M55.8007 72.1364C58.5618 72.1364 60.8002 69.8386 60.8002 67.0042C60.8002 64.1697 58.5618 61.8719 55.8007 61.8719C53.0395 61.8719 50.8011 64.1697 50.8011 67.0042C50.8011 69.8386 53.0395 72.1364 55.8007 72.1364Z" fill="#CCCCCC"/>
<path d="M55.8007 91.5248C58.5618 91.5248 60.8002 89.2271 60.8002 86.3926C60.8002 83.5582 58.5618 81.2604 55.8007 81.2604C53.0395 81.2604 50.8011 83.5582 50.8011 86.3926C50.8011 89.2271 53.0395 91.5248 55.8007 91.5248Z" fill="#CCCCCC"/>
<path d="M139.959 130.302C142.721 130.302 144.959 128.004 144.959 125.169C144.959 122.335 142.721 120.037 139.959 120.037C137.198 120.037 134.96 122.335 134.96 125.169C134.96 128.004 137.198 130.302 139.959 130.302Z" fill="#CCCCCC"/>
<path d="M103.852 130.302C106.613 130.302 108.851 128.004 108.851 125.169C108.851 122.335 106.613 120.037 103.852 120.037C101.091 120.037 98.8522 122.335 98.8522 125.169C98.8522 128.004 101.091 130.302 103.852 130.302Z" fill="#CCCCCC"/>
<path d="M214.397 130.302C217.158 130.302 219.396 128.004 219.396 125.169C219.396 122.335 217.158 120.037 214.397 120.037C211.636 120.037 209.397 122.335 209.397 125.169C209.397 128.004 211.636 130.302 214.397 130.302Z" fill="#CCCCCC"/>
<path d="M176.623 130.302C179.384 130.302 181.622 128.004 181.622 125.169C181.622 122.335 179.384 120.037 176.623 120.037C173.861 120.037 171.623 122.335 171.623 125.169C171.623 128.004 173.861 130.302 176.623 130.302Z" fill="#CCCCCC"/>
<path d="M245.227 28.7975H80.7983C80.651 28.7975 80.5097 28.7374 80.4055 28.6304C80.3013 28.5235 80.2428 28.3785 80.2428 28.2272C80.2428 28.076 80.3013 27.931 80.4055 27.824C80.5097 27.7171 80.651 27.657 80.7983 27.657H245.227C245.375 27.657 245.516 27.7171 245.62 27.824C245.724 27.931 245.783 28.076 245.783 28.2272C245.783 28.3785 245.724 28.5235 245.62 28.6304C245.516 28.7374 245.375 28.7975 245.227 28.7975Z" fill="#CCCCCC"/>
<path d="M245.227 48.1859H80.7983C80.651 48.1859 80.5097 48.1258 80.4055 48.0189C80.3013 47.9119 80.2428 47.7669 80.2428 47.6157C80.2428 47.4644 80.3013 47.3194 80.4055 47.2124C80.5097 47.1055 80.651 47.0454 80.7983 47.0454H245.227C245.375 47.0454 245.516 47.1055 245.62 47.2124C245.724 47.3194 245.783 47.4644 245.783 47.6157C245.783 47.7669 245.724 47.9119 245.62 48.0189C245.516 48.1258 245.375 48.1859 245.227 48.1859Z" fill="#CCCCCC"/>
<path d="M245.227 67.5743H80.7983C80.651 67.5743 80.5097 67.5142 80.4055 67.4073C80.3013 67.3004 80.2428 67.1553 80.2428 67.0041C80.2428 66.8528 80.3013 66.7078 80.4055 66.6009C80.5097 66.4939 80.651 66.4338 80.7983 66.4338H245.227C245.375 66.4338 245.516 66.4939 245.62 66.6009C245.724 66.7078 245.783 66.8528 245.783 67.0041C245.783 67.1553 245.724 67.3004 245.62 67.4073C245.516 67.5142 245.375 67.5743 245.227 67.5743Z" fill="#CCCCCC"/>
<path d="M245.227 86.9628H80.7983C80.651 86.9628 80.5097 86.9027 80.4055 86.7957C80.3013 86.6888 80.2428 86.5438 80.2428 86.3925C80.2428 86.2413 80.3013 86.0962 80.4055 85.9893C80.5097 85.8824 80.651 85.8223 80.7983 85.8223H245.227C245.375 85.8223 245.516 85.8824 245.62 85.9893C245.724 86.0962 245.783 86.2413 245.783 86.3925C245.783 86.5438 245.724 86.6888 245.62 86.7957C245.516 86.9027 245.375 86.9628 245.227 86.9628Z" fill="#CCCCCC"/>
<path d="M111.907 106.351H95.7969C95.0605 106.35 94.3546 106.05 93.8339 105.515C93.3132 104.981 93.0203 104.256 93.0194 103.5V88.1033C93.0203 87.3474 93.3132 86.6227 93.8339 86.0881C94.3546 85.5536 95.0605 85.253 95.7969 85.2521H111.907C112.643 85.253 113.349 85.5536 113.87 86.0881C114.39 86.6227 114.683 87.3474 114.684 88.1033V103.5C114.683 104.256 114.39 104.981 113.87 105.515C113.349 106.05 112.643 106.35 111.907 106.351Z" fill="#00BFA6"/>
<path d="M148.014 106.351H131.905C131.168 106.35 130.462 106.05 129.942 105.515C129.421 104.981 129.128 104.256 129.127 103.5V68.7149C129.128 67.959 129.421 67.2342 129.942 66.6997C130.462 66.1652 131.168 65.8645 131.905 65.8636H148.014C148.751 65.8645 149.457 66.1652 149.977 66.6997C150.498 67.2342 150.791 67.959 150.792 68.7149V103.5C150.791 104.256 150.498 104.981 149.977 105.515C149.457 106.05 148.751 106.35 148.014 106.351Z" fill="#00BFA6"/>
<path d="M184.677 106.351H168.568C167.831 106.35 167.125 106.05 166.605 105.515C166.084 104.981 165.791 104.256 165.79 103.5V49.3265C165.791 48.5705 166.084 47.8458 166.605 47.3113C167.125 46.7768 167.831 46.4761 168.568 46.4752H184.677C185.414 46.4761 186.12 46.7768 186.64 47.3113C187.161 47.8458 187.454 48.5705 187.455 49.3265V103.5C187.454 104.256 187.161 104.981 186.64 105.515C186.12 106.05 185.414 106.35 184.677 106.351Z" fill="#00BFA6"/>
<path d="M222.452 106.351H206.342C205.606 106.35 204.9 106.05 204.379 105.515C203.858 104.981 203.565 104.256 203.564 103.5V30.5082C203.565 29.7523 203.858 29.0276 204.379 28.4931C204.9 27.9585 205.606 27.6578 206.342 27.657H222.452C223.188 27.6578 223.894 27.9585 224.415 28.4931C224.935 29.0276 225.228 29.7523 225.229 30.5082V103.5C225.228 104.256 224.935 104.981 224.415 105.515C223.894 106.05 223.188 106.35 222.452 106.351Z" fill="#00BFA6"/>
<path d="M319.865 115.793C319.233 115.792 318.603 115.727 317.984 115.6H317.983C317.87 115.577 317.757 115.552 317.644 115.525L181.603 83.0095C180.125 82.6562 179.144 81.702 179.32 80.7895C179.394 80.5209 179.539 80.2785 179.739 80.0891C179.939 79.8997 180.186 79.7706 180.453 79.7161C181.109 79.5304 181.801 79.5146 182.465 79.6702L319.35 109.016C322.432 109.677 324.572 111.619 324.222 113.436C324.038 114.388 323.222 115.126 321.923 115.514C321.253 115.705 320.56 115.8 319.865 115.793Z" fill="#3F3D56"/>
<path d="M291.046 111.295C291.75 111.719 292.536 111.981 293.349 112.06C294.162 112.139 294.982 112.034 295.752 111.753C296.521 111.471 297.221 111.02 297.802 110.431C298.383 109.842 298.831 109.13 299.115 108.343L318.961 108.768L313.463 99.8085L295.459 100.779C294.141 100.377 292.726 100.485 291.48 101.084C290.235 101.682 289.247 102.728 288.703 104.024C288.159 105.321 288.097 106.777 288.529 108.117C288.961 109.457 289.856 110.587 291.046 111.295V111.295Z" fill="#FFB8B8"/>
<path d="M299.667 108.04L299.563 101.796C299.556 101.151 299.783 100.527 300.202 100.046C300.62 99.5654 301.198 99.2627 301.823 99.1977L337.487 95.6647L367.201 85.6636C368.098 85.3617 369.044 85.2458 369.985 85.3228C370.926 85.3997 371.842 85.6678 372.681 86.1117C373.52 86.5555 374.265 87.1661 374.872 87.9079C375.479 88.6498 375.936 89.5082 376.217 90.4331C376.498 91.358 376.598 92.3311 376.509 93.2957C376.42 94.2603 376.146 95.1972 375.701 96.052C375.257 96.9067 374.651 97.6622 373.92 98.2745C373.188 98.8869 372.346 99.3438 371.441 99.6189L338.551 109.615L302.229 110.562C301.68 110.576 301.142 110.404 300.697 110.073C300.253 109.742 299.926 109.27 299.769 108.73C299.704 108.506 299.67 108.274 299.667 108.04Z" fill="#3F3D56"/>
<path d="M352.444 269.033L345.633 269.032L342.394 242.066L352.445 242.067L352.444 269.033Z" fill="#FFB8B8"/>
<path d="M354.18 275.809L332.221 275.809V275.523C332.221 274.371 332.442 273.23 332.872 272.166C333.301 271.101 333.931 270.134 334.725 269.319C335.518 268.505 336.461 267.858 337.498 267.417C338.535 266.976 339.646 266.749 340.768 266.75H340.769L354.181 266.75L354.18 275.809Z" fill="#2F2E41"/>
<path d="M372.442 269.033L365.631 269.032L362.392 242.066L372.443 242.067L372.442 269.033Z" fill="#FFB8B8"/>
<path d="M374.179 275.809L352.219 275.809V275.523C352.219 274.371 352.441 273.23 352.87 272.166C353.3 271.101 353.929 270.134 354.723 269.319C355.517 268.505 356.459 267.858 357.496 267.417C358.533 266.976 359.644 266.749 360.767 266.75H360.767L374.179 266.75L374.179 275.809Z" fill="#2F2E41"/>
<path d="M377.013 160.054L375.386 259.102C375.381 259.416 375.313 259.725 375.186 260.011C375.059 260.296 374.877 260.552 374.649 260.761C374.422 260.971 374.155 261.13 373.865 261.229C373.575 261.328 373.268 261.364 372.963 261.336L364.994 260.592C364.471 260.543 363.982 260.306 363.614 259.922C363.245 259.539 363.02 259.034 362.98 258.496L358.314 196.713C358.303 196.568 358.239 196.432 358.134 196.335C358.029 196.237 357.891 196.184 357.749 196.187C357.608 196.19 357.472 196.248 357.371 196.35C357.27 196.452 357.211 196.59 357.205 196.735L354.873 259.933C354.852 260.523 354.608 261.081 354.194 261.49C353.78 261.899 353.228 262.128 352.653 262.128H344.106C343.54 262.128 342.996 261.906 342.584 261.508C342.172 261.11 341.923 260.566 341.888 259.986L335.905 159.483L371.457 150.359L377.013 160.054Z" fill="#2F2E41"/>
<path d="M351.225 67.0484C358.761 67.0484 364.869 60.7777 364.869 53.0425C364.869 45.3073 358.761 39.0366 351.225 39.0366C343.69 39.0366 337.582 45.3073 337.582 53.0425C337.582 60.7777 343.69 67.0484 351.225 67.0484Z" fill="#FFB8B8"/>
<path d="M334.688 163C334.452 162.766 334.263 162.486 334.133 162.176C334.003 161.866 333.934 161.533 333.93 161.195L333.01 93.6538C332.954 90.218 333.961 86.8526 335.886 84.041C337.81 81.2295 340.553 79.1164 343.721 78.0054C344.999 72.0523 351.802 71.3066 355.768 71.3957C356.758 71.4176 357.728 71.6842 358.596 72.1729C359.465 72.6616 360.205 73.3579 360.755 74.203L363.598 78.5806L369.865 82.3513C372.765 84.0889 375.052 86.7271 376.397 89.8855C377.742 93.0439 378.075 96.5592 377.347 99.9243L376.383 104.429C372.986 120.373 373.309 136.915 377.326 152.706L379.267 160.304C379.368 160.7 379.376 161.115 379.289 161.514C379.202 161.913 379.024 162.286 378.768 162.6C378.513 162.914 378.188 163.161 377.821 163.32C377.454 163.479 377.055 163.545 376.657 163.514L374.403 163.335C373.817 163.29 373.266 163.034 372.847 162.613C372.427 162.192 372.165 161.632 372.107 161.033L371.734 157.202C371.727 157.132 371.695 157.067 371.644 157.019C371.593 156.972 371.526 156.946 371.458 156.946C371.389 156.946 371.322 156.972 371.271 157.019C371.22 157.067 371.188 157.132 371.181 157.202L370.82 160.911C370.759 161.537 370.476 162.119 370.024 162.545C369.573 162.971 368.984 163.212 368.371 163.221L336.468 163.725C336.455 163.725 336.442 163.726 336.428 163.726C335.778 163.727 335.153 163.467 334.688 163Z" fill="#3F3D56"/>
<path d="M352.293 61.1157C352.349 63.0956 353.688 64.241 355.332 65.278C356.975 66.3151 358.897 66.7648 360.78 67.1985C361.033 67.3364 361.316 67.405 361.602 67.3978C361.888 67.3906 362.168 67.3078 362.414 67.1573C362.66 67.0069 362.864 66.7939 363.006 66.539C363.149 66.284 363.225 65.9957 363.227 65.7018L364.954 58.9597C365.565 56.806 366.009 54.6061 366.283 52.3807C366.699 48.0986 365.71 43.4922 362.799 40.3962C359.887 37.3002 354.838 36.2003 351.349 38.5858C347.208 33.1572 328.283 45.151 332.951 48.926C333.782 49.5976 335.051 48.7478 336.106 48.6654C337.16 48.583 338.341 48.7734 339.011 49.6133C339.886 50.7106 339.505 52.3451 339.865 53.7139C340.014 54.1955 340.255 54.642 340.573 55.0278C340.891 55.4135 341.28 55.7307 341.718 55.9613C342.157 56.1918 342.635 56.331 343.126 56.3708C343.616 56.4107 344.11 56.3504 344.578 56.1935C345.45 55.7526 346.27 55.2115 347.022 54.5805C347.831 54.0276 348.853 53.619 349.763 53.9678C350.963 54.4274 351.389 55.9353 351.497 57.2453C351.68 58.5518 351.946 59.8447 352.293 61.1157Z" fill="#2F2E41"/>
<path opacity="0.2" d="M349.106 98.6528L346.884 126.595L335.219 155.678L352.439 127.165L349.106 98.6528Z" fill="black"/>
<path d="M332.491 166.508C333.128 165.983 333.645 165.321 334.005 164.569C334.366 163.817 334.562 162.993 334.578 162.155C334.595 161.317 334.433 160.485 334.103 159.718C333.772 158.951 333.282 158.268 332.667 157.717L340.099 138.821L329.988 140.917L324.481 158.54C323.647 159.662 323.243 161.059 323.346 162.467C323.449 163.874 324.051 165.194 325.038 166.176C326.025 167.158 327.329 167.735 328.703 167.796C330.077 167.857 331.424 167.399 332.491 166.508V166.508Z" fill="#FFB8B8"/>
<path d="M331.95 158.174L326.226 156.057C325.636 155.835 325.149 155.395 324.86 154.823C324.57 154.251 324.5 153.589 324.662 152.966L334.104 117.486L335.544 85.4192C335.587 84.4513 335.818 83.5019 336.222 82.6263C336.626 81.7506 337.195 80.9661 337.897 80.3185C338.599 79.6708 339.42 79.1728 340.311 78.8536C341.202 78.5343 342.146 78.4001 343.088 78.4587C344.03 78.5173 344.952 78.7677 345.799 79.1951C346.646 79.6225 347.402 80.2186 348.022 80.9486C348.643 81.6786 349.116 82.5279 349.414 83.4473C349.712 84.3667 349.829 85.3377 349.758 86.3038L347.187 121.416L335.156 156.611C334.974 157.142 334.626 157.598 334.167 157.907C333.708 158.216 333.162 158.361 332.614 158.321C332.387 158.303 332.164 158.254 331.95 158.174Z" fill="#3F3D56"/>
<path d="M245.227 106.351H80.7983C80.651 106.351 80.5097 106.291 80.4055 106.184C80.3013 106.077 80.2428 105.932 80.2428 105.781C80.2428 105.63 80.3013 105.485 80.4055 105.378C80.5097 105.271 80.651 105.211 80.7983 105.211H245.227C245.375 105.211 245.516 105.271 245.62 105.378C245.724 105.485 245.783 105.63 245.783 105.781C245.783 105.932 245.724 106.077 245.62 106.184C245.516 106.291 245.375 106.351 245.227 106.351Z" fill="#3F3D56"/>
</g>
<defs>
<filter id="filter0_d" x="0" y="0" width="468" height="284" filterUnits="userSpaceOnUse" color-interpolation-filters="sRGB">
<feFlood flood-opacity="0" result="BackgroundImageFix"/>
<feColorMatrix in="SourceAlpha" type="matrix" values="0 0 0 0 0 0 0 0 0 0 0 0 0 0 0 0 0 0 127 0"/>
<feOffset dy="4"/>
<feGaussianBlur stdDeviation="2"/>
<feColorMatrix type="matrix" values="0 0 0 0 0 0 0 0 0 0 0 0 0 0 0 0 0 0 0.25 0"/>
<feBlend mode="normal" in2="BackgroundImageFix" result="effect1_dropShadow"/>
<feBlend mode="normal" in="SourceGraphic" in2="effect1_dropShadow" result="shape"/>
</filter>
</defs>
</svg>
