<svg width="64" height="61" viewBox="0 0 64 61" fill="none" xmlns="http://www.w3.org/2000/svg">
<g filter="url(#filter0_d)">
<path d="M32 0C16.5393 0 4 12.0892 4 27C4 38.9295 12.022 49.05 23.1497 52.6207C24.5473 52.8705 25 52.0335 25 51.3225V46.296C17.2113 47.9295 15.5897 43.11 15.5897 43.11C14.3157 39.9892 12.4793 39.159 12.4793 39.159C9.93833 37.4827 12.673 37.5187 12.673 37.5187C15.4847 37.7077 16.964 40.302 16.964 40.302C19.4607 44.4285 23.5137 43.236 25.112 42.5452C25.3617 40.8015 26.0873 39.609 26.89 38.9362C20.6717 38.25 14.1337 35.9347 14.1337 25.5915C14.1337 22.6417 15.228 20.2342 17.0177 18.3442C16.7283 17.6625 15.7693 14.9152 17.2907 11.1982C17.2907 11.1982 19.6427 10.4737 24.993 13.9657C27.226 13.3672 29.62 13.068 32 13.0567C34.38 13.068 36.7763 13.3672 39.014 13.9657C44.3597 10.4737 46.707 11.1982 46.707 11.1982C48.2307 14.9175 47.2717 17.6647 46.9823 18.3442C48.779 20.2342 49.864 22.644 49.864 25.5915C49.864 35.9617 43.3143 38.2455 37.0797 38.9137C38.083 39.7507 39 41.3932 39 43.9132V51.3225C39 52.0402 39.448 52.884 40.869 52.6185C51.9873 49.0432 60 38.925 60 27C60 12.0892 47.463 0 32 0Z" fill="#909090"/>
</g>
<defs>
<filter id="filter0_d" x="0" y="0" width="64" height="62" filterUnits="userSpaceOnUse" color-interpolation-filters="sRGB">
<feFlood flood-opacity="0" result="BackgroundImageFix"/>
<feColorMatrix in="SourceAlpha" type="matrix" values="0 0 0 0 0 0 0 0 0 0 0 0 0 0 0 0 0 0 127 0"/>
<feOffset dy="4"/>
<feGaussianBlur stdDeviation="2"/>
<feColorMatrix type="matrix" values="0 0 0 0 0 0 0 0 0 0 0 0 0 0 0 0 0 0 0.25 0"/>
<feBlend mode="normal" in2="BackgroundImageFix" result="effect1_dropShadow"/>
<feBlend mode="normal" in="SourceGraphic" in2="effect1_dropShadow" result="shape"/>
</filter>
</defs>
</svg>
