<svg width="67" height="66" viewBox="0 0 67 66" fill="none" xmlns="http://www.w3.org/2000/svg">
<g filter="url(#filter0_d)">
<path d="M12.0601 4.95996C8.37576 4.95996 5.36011 7.75056 5.36011 11.16V50.84C5.36011 54.2494 8.37576 57.04 12.0601 57.04H54.9401C58.6245 57.04 61.6401 54.2494 61.6401 50.84V11.16C61.6401 7.75056 58.6245 4.95996 54.9401 4.95996H12.0601ZM12.0601 7.43996H54.9401C57.1759 7.43996 58.9601 9.09104 58.9601 11.16V50.84C58.9601 52.9089 57.1759 54.56 54.9401 54.56H12.0601C9.82434 54.56 8.04011 52.9089 8.04011 50.84V11.16C8.04011 9.09104 9.82434 7.43996 12.0601 7.43996ZM18.7601 13.6545C17.2925 13.6545 15.9719 14.0604 14.994 14.8218C14.0161 15.5833 13.4158 16.7208 13.4158 17.9388C13.4158 20.2541 15.586 22.0591 18.3466 22.2376C18.3483 22.2384 18.3501 22.2392 18.3518 22.24C18.4834 22.2815 18.6212 22.3036 18.7601 22.3054C21.8059 22.3054 24.1044 20.3311 24.1044 17.9388C24.1042 17.917 24.1033 17.8952 24.1018 17.8734C23.9654 15.5171 21.6953 13.6545 18.7601 13.6545ZM18.7601 16.1054C20.6257 16.1054 21.3623 16.8764 21.4427 17.9703C21.4264 19.032 20.7166 19.8545 18.7601 19.8545C16.9037 19.8545 16.0644 18.9747 16.0644 17.9388C16.0644 17.4208 16.2687 17.0305 16.6978 16.6964C17.1269 16.3622 17.8157 16.1054 18.7601 16.1054ZM14.7401 23.56C14.3847 23.56 14.0439 23.6906 13.7926 23.9232C13.5413 24.1557 13.4001 24.4711 13.4001 24.8V48.36C13.4001 48.6888 13.5413 49.0042 13.7926 49.2367C14.0439 49.4693 14.3847 49.5999 14.7401 49.6H22.7801C23.1355 49.5999 23.4763 49.4693 23.7276 49.2367C23.9789 49.0042 24.1201 48.6888 24.1201 48.36V41.0871V24.8C24.1201 24.4711 23.9789 24.1557 23.7276 23.9232C23.4763 23.6906 23.1355 23.56 22.7801 23.56H14.7401ZM26.8001 23.56C26.4447 23.56 26.1039 23.6906 25.8526 23.9232C25.6013 24.1557 25.4601 24.4711 25.4601 24.8V48.36C25.4601 48.6888 25.6013 49.0042 25.8526 49.2367C26.1039 49.4693 26.4447 49.5999 26.8001 49.6H34.8401C35.1955 49.5999 35.5363 49.4693 35.7876 49.2367C36.0389 49.0042 36.1801 48.6888 36.1801 48.36V35.96C36.1801 34.9312 36.4835 33.9078 37.0176 33.2378C37.5517 32.5677 38.2256 32.1656 39.5066 32.1867C40.8275 32.2077 41.5267 32.6264 42.0557 33.2838C42.5847 33.9411 42.8801 34.9266 42.8801 35.96V48.36C42.8801 48.6888 43.0213 49.0042 43.2726 49.2367C43.5239 49.4693 43.8647 49.5999 44.2201 49.6H52.2601C52.6155 49.5999 52.9563 49.4693 53.2076 49.2367C53.4589 49.0042 53.6001 48.6888 53.6001 48.36V35.0445C53.6001 31.3722 52.4246 28.4633 50.4098 26.4953C48.3949 24.5272 45.5925 23.56 42.6289 23.56C39.8122 23.56 37.6687 24.434 36.1801 25.3255V24.8C36.1801 24.4711 36.0389 24.1557 35.7876 23.9232C35.5363 23.6906 35.1955 23.56 34.8401 23.56H26.8001ZM16.0801 26.04H21.4401V41.0871V47.12H16.0801V26.04ZM28.1401 26.04H33.5001V27.975C33.5002 28.2351 33.5886 28.4885 33.7528 28.6994C33.917 28.9104 34.1487 29.0683 34.4152 29.1508C34.6817 29.2332 34.9694 29.2361 35.2378 29.159C35.5061 29.0819 35.7414 28.9286 35.9105 28.721C35.9105 28.721 38.0148 26.04 42.6289 26.04C44.9783 26.04 46.9931 26.7624 48.4652 28.2003C49.9373 29.6382 50.9201 31.8534 50.9201 35.0445V47.12H45.5601V35.96C45.5601 34.5133 45.1855 33.0176 44.207 31.8016C43.2285 30.5856 41.5828 29.739 39.5537 29.7067C37.5141 29.6732 35.8418 30.5374 34.861 31.7677C33.8803 32.998 33.5001 34.5087 33.5001 35.96V47.12H28.1401V26.04Z" fill="#909090"/>
</g>
<defs>
<filter id="filter0_d" x="-4" y="0" width="75" height="70" filterUnits="userSpaceOnUse" color-interpolation-filters="sRGB">
<feFlood flood-opacity="0" result="BackgroundImageFix"/>
<feColorMatrix in="SourceAlpha" type="matrix" values="0 0 0 0 0 0 0 0 0 0 0 0 0 0 0 0 0 0 127 0"/>
<feOffset dy="4"/>
<feGaussianBlur stdDeviation="2"/>
<feColorMatrix type="matrix" values="0 0 0 0 0 0 0 0 0 0 0 0 0 0 0 0 0 0 0.25 0"/>
<feBlend mode="normal" in2="BackgroundImageFix" result="effect1_dropShadow"/>
<feBlend mode="normal" in="SourceGraphic" in2="effect1_dropShadow" result="shape"/>
</filter>
</defs>
</svg>
