<svg width="452" height="355" viewBox="0 0 452 355" fill="none" xmlns="http://www.w3.org/2000/svg">
<g filter="url(#filter0_d)">
<g clip-path="url(#clip0)">
<path d="M420.46 93.0024C411.288 93.0024 403.852 85.5894 403.852 76.4451C403.852 67.3007 411.288 59.8877 420.46 59.8877C429.633 59.8877 437.068 67.3007 437.068 76.4451C437.068 85.5894 429.633 93.0024 420.46 93.0024Z" fill="#2F2E41"/>
<path d="M372.108 179.593L367.904 185.858C367.904 185.858 347.722 190.333 355.29 197.045C362.858 203.758 373.79 190.78 373.79 190.78L379.676 182.725L372.108 179.593Z" fill="#FFB8B8"/>
<path d="M393.972 108.441C393.972 108.441 388.506 108.441 387.244 116.496C385.983 124.551 384.722 151.401 384.722 151.401C384.722 151.401 367.063 176.013 370.006 179.146C372.949 182.278 376.313 188.096 378.415 187.201C380.517 186.306 398.597 159.903 398.597 159.903L393.972 108.441Z" fill="#E6E6E6"/>
<path d="M410.79 85.6188C410.79 85.6188 410.369 103.071 405.324 103.966C400.279 104.861 401.96 110.679 401.96 110.679C401.96 110.679 418.358 120.971 429.29 110.679L431.392 105.309C431.392 105.309 423.824 99.4912 427.188 91.4362L410.79 85.6188Z" fill="#FFB8B8"/>
<path d="M382.619 193.018C382.619 193.018 357.813 242.242 367.063 257.457C376.313 272.672 390.188 303.997 392.29 303.997C394.392 303.997 406.165 297.732 405.324 293.704C404.483 289.677 391.869 259.695 388.506 257.01C385.142 254.325 386.824 247.165 387.244 246.717C387.665 246.27 401.54 222.553 401.54 222.553C401.54 222.553 401.119 260.142 402.801 265.96C404.483 271.777 402.381 313.394 404.483 315.184C406.585 316.974 416.256 320.107 417.938 317.422C419.619 314.737 424.665 274.015 421.301 264.617L427.608 200.178L382.619 193.018Z" fill="#2F2E41"/>
<path d="M405.324 312.5L394.813 333.084C394.813 333.084 379.676 344.719 390.188 346.509C400.699 348.299 407.006 343.824 407.006 343.824L416.256 336.664V316.079L405.324 312.5Z" fill="#2F2E41"/>
<path d="M391.029 300.865L396.494 314.737C396.494 314.737 398.597 320.554 396.494 321.897C394.392 323.239 388.506 331.294 392.29 332.189C393.051 332.348 393.825 332.43 394.6 332.434C397.751 332.49 400.881 331.868 403.8 330.603C406.719 329.339 409.367 327.459 411.586 325.077L414.994 321.449C414.994 321.449 403.318 292.833 403.48 293.045C403.642 293.257 391.029 300.865 391.029 300.865Z" fill="#2F2E41"/>
<path d="M421.301 96.3587C413.406 96.3587 407.006 89.5468 407.006 81.1438C407.006 72.7409 413.406 65.929 421.301 65.929C429.196 65.929 435.597 72.7409 435.597 81.1438C435.597 89.5468 429.196 96.3587 421.301 96.3587Z" fill="#FFB8B8"/>
<path d="M429.5 102.4L425.085 107.099C425.085 107.099 411.631 112.469 405.324 107.099C405.324 107.099 407.637 101.952 407.637 102.4C407.637 102.847 389.347 105.756 387.665 113.811C385.983 121.866 388.926 135.738 388.926 135.738C388.926 135.738 377.154 194.808 381.779 196.15C386.404 197.493 429.71 208.68 429.29 200.178C428.869 191.675 432.654 156.771 432.654 156.771L447.369 126.788C447.369 126.788 445.267 116.944 440.222 113.811C435.176 110.679 429.5 102.4 429.5 102.4Z" fill="#E6E6E6"/>
<path d="M410.79 189.885L405.324 193.465C405.324 193.465 384.301 208.68 395.233 211.365C406.165 214.05 412.472 200.625 412.472 200.625L416.676 195.255L410.79 189.885Z" fill="#FFB8B8"/>
<path opacity="0.1" d="M441.903 124.103L445.687 128.131C445.687 128.131 448.21 165.721 443.165 173.328C438.119 180.935 414.994 201.52 413.733 200.178C412.472 198.835 404.483 192.123 406.165 191.228C407.847 190.333 430.208 165.466 430.208 165.466L428.449 130.816L441.903 124.103Z" fill="black"/>
<path d="M443.585 122.761L447.369 126.788C447.369 126.788 449.892 164.378 444.847 171.985C439.801 179.593 416.676 200.178 415.415 198.835C414.154 197.493 406.165 190.78 407.847 189.885C409.529 188.99 431.889 164.123 431.889 164.123L430.131 129.473L443.585 122.761Z" fill="#E6E6E6"/>
<path d="M415.389 59.532C415.389 59.532 410.53 57.6513 403.903 61.6478L407.437 62.5882C407.437 62.5882 402.136 63.0584 401.473 70.5812H403.903C403.903 70.5812 402.357 77.1636 403.903 79.0443L404.897 77.0461L407.769 83.1584L408.431 80.1022L409.756 80.5724L410.64 75.6356C410.64 75.6356 412.849 79.1619 414.616 79.397V76.3409C414.616 76.3409 419.475 82.2181 421.021 81.983L418.813 78.6917L421.905 79.397L420.58 77.0461L428.531 79.397L426.764 77.0461L432.286 78.9268L434.937 80.1022C434.937 80.1022 438.692 70.9338 433.391 64.5864C428.09 58.239 420.359 56.8285 415.389 59.532Z" fill="#2F2E41"/>
<path d="M15.1266 36.7142H337.057V256.154H15.1266V36.7142Z" fill="#E6E6E6"/>
<path d="M24.3321 64.2374H327.852V243.172H24.3321V64.2374Z" fill="white"/>
<path d="M15.264 36.52H337.195V51.0765H15.264V36.52Z" fill="#00BFA6"/>
<path d="M327.031 46.66C325.631 46.66 324.496 45.4521 324.496 43.9621C324.496 42.4721 325.631 41.2642 327.031 41.2642C328.431 41.2642 329.566 42.4721 329.566 43.9621C329.566 45.4521 328.431 46.66 327.031 46.66Z" fill="white"/>
<path d="M317.409 46.66C316.009 46.66 314.875 45.4521 314.875 43.9621C314.875 42.4721 316.009 41.2642 317.409 41.2642C318.809 41.2642 319.944 42.4721 319.944 43.9621C319.944 45.4521 318.809 46.66 317.409 46.66Z" fill="white"/>
<path d="M307.788 46.66C306.388 46.66 305.253 45.4521 305.253 43.9621C305.253 42.4721 306.388 41.2642 307.788 41.2642C309.188 41.2642 310.323 42.4721 310.323 43.9621C310.323 45.4521 309.188 46.66 307.788 46.66Z" fill="white"/>
<path d="M222.283 82.8033H300.273V224.606H222.283V82.8033Z" fill="#E6E6E6"/>
<path d="M143.828 82.8033H208.82V121.836H143.828V82.8033Z" fill="#00BFA6"/>
<path d="M143.828 132.706H208.82V174.704H143.828V132.706Z" fill="#E6E6E6"/>
<path d="M143.828 185.573H208.82V224.606H143.828V185.573Z" fill="#E6E6E6"/>
<path d="M51.9111 82.8033H129.901V144.6H51.9111V82.8033Z" fill="#E6E6E6"/>
<path d="M51.9111 162.809H129.901V224.606H51.9111V162.809Z" fill="#00BFA6"/>
<path d="M175.654 100.448L176.672 100.16L154.455 11.2073H25.5864V12.328H153.646L175.654 100.448Z" fill="#3F3D56"/>
<path d="M15.0564 23.535C17.2432 23.535 19.3808 22.8449 21.199 21.5518C23.0172 20.2588 24.4344 18.421 25.2712 16.2708C26.108 14.1205 26.3269 11.7545 25.9003 9.47179C25.4737 7.18912 24.4207 5.09234 22.8745 3.44663C21.3282 1.80091 19.3582 0.680166 17.2134 0.226114C15.0687 -0.227938 12.8456 0.00510025 10.8253 0.895755C8.80502 1.78641 7.07829 3.29468 5.8634 5.22984C4.64851 7.16499 4.00006 9.44012 4.00006 11.7675C4.00339 14.8874 5.16931 17.8784 7.24206 20.0845C9.31481 22.2906 12.1251 23.5315 15.0564 23.535ZM15.0564 1.12072C17.0349 1.12072 18.9689 1.74514 20.614 2.91503C22.259 4.08491 23.5412 5.74772 24.2983 7.69317C25.0555 9.63862 25.2536 11.7793 24.8676 13.8446C24.4816 15.9099 23.5289 17.807 22.1299 19.2959C20.7309 20.7849 18.9484 21.7989 17.008 22.2098C15.0675 22.6206 13.0562 22.4097 11.2283 21.6039C9.40045 20.7981 7.83813 19.4334 6.73895 17.6826C5.63976 15.9317 5.05304 13.8733 5.05304 11.7675C5.05605 8.94479 6.11098 6.23861 7.98632 4.24264C9.86167 2.24667 12.4043 1.12393 15.0564 1.12072Z" fill="#3F3D56"/>
<path d="M15.0564 16.2504C12.7302 16.2504 10.8444 14.2433 10.8444 11.7675C10.8444 9.29171 12.7302 7.28467 15.0564 7.28467C17.3826 7.28467 19.2683 9.29171 19.2683 11.7675C19.2683 14.2433 17.3826 16.2504 15.0564 16.2504Z" fill="#00BFA6"/>
<path d="M111.526 282.42H240.396V281.3H112.336L90.3275 193.179L89.3095 193.467L111.526 282.42Z" fill="#3F3D56"/>
<path d="M250.926 293.628C253.113 293.628 255.25 292.937 257.068 291.644C258.887 290.351 260.304 288.514 261.141 286.363C261.977 284.213 262.196 281.847 261.77 279.564C261.343 277.282 260.29 275.185 258.744 273.539C257.198 271.893 255.228 270.773 253.083 270.319C250.938 269.865 248.715 270.098 246.695 270.988C244.674 271.879 242.948 273.387 241.733 275.322C240.518 277.258 239.869 279.533 239.869 281.86C239.873 284.98 241.039 287.971 243.111 290.177C245.184 292.383 247.994 293.624 250.926 293.628ZM250.926 271.213C252.904 271.213 254.838 271.838 256.483 273.008C258.128 274.177 259.411 275.84 260.168 277.786C260.925 279.731 261.123 281.872 260.737 283.937C260.351 286.002 259.398 287.9 257.999 289.388C256.6 290.877 254.818 291.892 252.877 292.302C250.937 292.713 248.926 292.502 247.098 291.696C245.27 290.891 243.707 289.526 242.608 287.775C241.509 286.024 240.922 283.966 240.922 281.86C240.925 279.037 241.98 276.331 243.856 274.335C245.731 272.339 248.274 271.216 250.926 271.213Z" fill="#3F3D56"/>
<path d="M250.926 286.343C248.6 286.343 246.714 284.336 246.714 281.86C246.714 279.384 248.6 277.377 250.926 277.377C253.252 277.377 255.138 279.384 255.138 281.86C255.138 284.336 253.252 286.343 250.926 286.343Z" fill="#00BFA6"/>
</g>
</g>
<defs>
<filter id="filter0_d" x="0" y="0" width="452" height="354.932" filterUnits="userSpaceOnUse" color-interpolation-filters="sRGB">
<feFlood flood-opacity="0" result="BackgroundImageFix"/>
<feColorMatrix in="SourceAlpha" type="matrix" values="0 0 0 0 0 0 0 0 0 0 0 0 0 0 0 0 0 0 127 0"/>
<feOffset dy="4"/>
<feGaussianBlur stdDeviation="2"/>
<feColorMatrix type="matrix" values="0 0 0 0 0 0 0 0 0 0 0 0 0 0 0 0 0 0 0.25 0"/>
<feBlend mode="normal" in2="BackgroundImageFix" result="effect1_dropShadow"/>
<feBlend mode="normal" in="SourceGraphic" in2="effect1_dropShadow" result="shape"/>
</filter>
<clipPath id="clip0">
<rect width="444" height="346.932" fill="white" transform="matrix(-1 0 0 1 448 0)"/>
</clipPath>
</defs>
</svg>
