<svg width="45" height="45" viewBox="0 0 45 45" fill="none" xmlns="http://www.w3.org/2000/svg">
<path d="M22.5 3.75C32.8387 3.75 41.25 12.1613 41.25 22.5C41.25 32.8387 32.8387 41.25 22.5 41.25C12.1613 41.25 3.75 32.8387 3.75 22.5C3.75 12.1613 12.1613 3.75 22.5 3.75ZM22.5 0C10.0744 0 0 10.0744 0 22.5C0 34.9256 10.0744 45 22.5 45C34.9256 45 45 34.9256 45 22.5C45 10.0744 34.9256 0 22.5 0ZM33.75 31.0088L25.14 22.4812L33.6638 13.8806L31.0088 11.25L22.4869 19.8544L13.8844 11.3363L11.25 13.9706L19.8619 22.5056L11.3363 31.1156L13.9706 33.75L22.5112 25.1325L31.1194 33.6638L33.75 31.0088Z" fill="#CCCCCC"/>
</svg>
